# xmcd CD database file generated by Grip 3.2.0
# 
# Track frame offsets:
#       150
#       20559
#       39381
#       57422
#       76536
#       95860
#       113707
#       132584
#       151851
#       172108
#       190413
# 
# Disc length: 2811 seconds
# 
# Revision: 2
# Processed by: cddbd v1.5.1PL0 Copyright (c) Steve Scherf et al.
# Submitted via: Grip 3.2.0
# 
DISCID=8f0af90b
DTITLE=Khadja Nin - Sambolera
DYEAR=1900
DGENRE=Blues
TTITLE0=Sambolera Mayi Son
TTITLE1=Sina Mali, Sina Deni
TTITLE2=Wale Watu
TTITLE3=Mama Lusiya
TTITLE4=Save Us
TTITLE5=Mwana Wa Mama
TTITLE6=Leo Leya
TTITLE7=M'barik Fall
TTITLE8=Sous Le Charme
TTITLE9=Rosy
TTITLE10=Bwana C
EXTD=
EXTT0=
EXTT1=
EXTT2=
EXTT3=
EXTT4=
EXTT5=
EXTT6=
EXTT7=
EXTT8=
EXTT9=
EXTT10=
PLAYORDER=
